<?xml version="1.0" encoding="UTF-8"?>
<svg id="Layer_1" xmlns="http://www.w3.org/2000/svg" version="1.1" viewBox="0 0 432 648">
  <!-- Generator: Adobe Illustrator 29.2.1, SVG Export Plug-In . SVG Version: 2.1.0 Build 116)  -->
  <path d="M211.2,325.6c.2,0,.5.6,1.2,1.8.8,1.5.8.9,2.3,2.5.3.4.8.5.8,1.4s-.2.5-.4.7c-1.9,1.2-2.2,1.5-3.6,4.2,0,.2-.3.3-1,.3-1.1,0-1.9-.5-2.8-2.8-.3-.8-.4-1-1.9-1.9-.6-.4-1-1-1-1.3s.9-.9,1.4-1.2c1.6-1.2,1.9-.8,2.9-2.7.3-.6,1-1,1.8-1h0Z"/>
  <path d="M219.6,331.7c-.6,0-1.1-.5-1.1-1.1h0c0-.6.5-1.1,1.1-1.1h180.7c.6,0,1.1.5,1.1,1.1h0c0,.6-.5,1.1-1.1,1.1h-180.7Z"/>
  <path d="M24.6,331.7c-.6,0-1.1-.5-1.1-1.1h0c0-.6.5-1.1,1.1-1.1h176.1c.6,0,1.1.5,1.1,1.1h0c0,.6-.5,1.1-1.1,1.1H24.6Z"/>
  <g>
    <path d="M186.2,306.1c-6.3-15.8-12-28.8-18-47.4h0c0-.1-1.2,0-1.2,0h0s0,.1,0,.1c-10.2,22.6-22.6,51.1-24.4,53.9-1.1,1.7-2.3,2.6-6.4,3.1h-.2v1.5h.2c3.7,0,6-.2,10-.2s5.4,0,9.9.1h.2s0-1.5,0-1.5v-.2h-.2c-5.8-.2-7-1.4-7.1-3.5,0-2.3,1.7-7,5.8-16.7h20.9c5.6,14.5,6.2,15.8,6.2,17.2,0,2-.3,2.7-5.4,3.1h-.2v1.7h.2c4.4,0,5-.1,9.3-.1s6,0,10.3.1h.2s0-.2,0-.2v-1.5h-.2c-5.8-.2-7-3.1-9.7-9.6ZM174,291.6h-17.7l9.4-21.7c3.5,9.2,6.1,16.2,8.3,21.7Z"/>
    <path d="M278.7,305.7v.2c-3.5,4.6-5.8,7.9-17.4,7.9-11.3,0-11.2-.4-11.3-8.6v-16h7.5c7.2,0,10.4.2,10.9,4.3v.2h1.4v-.2c0-3.6,0-4.7,0-6.2s0-2.9,0-6.6v-.2s-1.2,0-1.2,0h-.2v.2c-.4,4.4-3.6,4.5-10.9,4.5h-7.5v-13.2c0-7.9,1.2-8.1,11.3-8.2,9.2,0,10.7,3.6,12.6,8.2h0c0,.1.9,0,.9,0h.2s0-.2,0-.2c0-1.8-.2-3.8-.2-5.7s.1-4.2.4-6.2v-.2s-.2,0-.2,0c-3.4.7-9.4.7-21.2.7-4.7,0-9.8,0-14.6,0h0s-.2,0-.2,0c-.3,0-.7,0-1,0-.4,0-.8,0-1.2,0h-.2s0,0,0,0c-2.7,0-5.1.1-8,.1s-5.8,0-9.5,0h-.2v1.5h.2c3.5.5,5,1.4,5,3.1,0,1.6-1.4,3.7-3.4,7.4l-9.6,17.1-8.9-17.1c-2-3.7-4.1-6.6-4.1-7.4,0-1.7,1.4-2.6,4.9-3.1h.2v-1.5h-.2c-3.7,0-5.9,0-9.6,0s-6.7,0-10.4,0h-.2v1.5h.2c5.8.8,7.7,1.4,12,9.2l12.2,22.7v11.5c0,7.2-.7,10-7.2,10.9h-.2v1.4h.2c3.6,0,6.5-.2,10.2-.2s6.7,0,10.5.1h.2s0-1.2,0-1.2v-.2h-.2c-6.7-.9-7.4-3.6-7.4-10.9v-11.4l11.6-20.5c5.3-9.3,8.3-10.7,13.4-11.4,5.3,1,5.9,3.9,5.9,10.5v32.8c0,7.2-.7,10-7.2,10.9h-.2v1.4h.2c6-.2,12.2-.2,18.3-.2,9.7,0,15.9,0,20,.8h.2s0-.1,0-.1c.7-3.5,2.3-7.6,4.2-11.2h0c0-.1-.7-.9-.7-.9v-.2Z"/>
    <path d="M131.2,289.2c7.2,0,10.4.2,10.9,4.3v.2h1.4v-.2c0-3.6,0-4.7,0-6.2s0-2.9,0-6.6v-.2s-1.2,0-1.2,0h-.2v.2c-.4,4.4-3.6,4.5-10.9,4.5h-7.7v-13.2c0-7.9,1.2-8.1,11.3-8.2,9.2,0,10.7,3.6,12.6,8.2h0c0,.1.9,0,.9,0h.2s0-.2,0-.2c0-1.8-.2-3.8-.2-5.7s.1-4.2.4-6.2v-.2s-.2,0-.2,0c-3.4.7-9.4.7-21.2.7-5.5,0-11.5,0-17,0h-.2s0,1.4,0,1.4v.2h.2c6.6.9,7.2,3.6,7.2,10.8v32.7c0,7-.4,9.6-6.6,10.5-5.7-.3-7.2-3.2-9.6-9.7-5.9-15.8-11.5-28.7-17-47.3h0c0-.1-1.2,0-1.2,0h-.1s0,.1,0,.1c-9.2,20.9-22.1,48.3-24.8,52.8-.8,1.4-4.1,2.1-10.8,2.1-9.8,0-9.7-.4-9.8-8.6v-32.6c0-7.3.7-9.9,7.4-10.7h.2v-1.5h-.2c-3.7,0-6.6,0-10.3,0s-6.7,0-10.4,0h-.2v1.5h.2c6.6.9,7.2,3.6,7.2,10.8v32.7c0,7.2-.7,10-7.2,10.9h-.2v1.4h.2c6.1-.2,10.8-.2,16.8-.2,9.2,0,15.6,0,20.8.8h.2s0-.1,0-.1c1.7-8.1,4.9-15.3,8.1-22.4h21.2c5.1,14.2,5.5,15.7,5.5,17.1,0,2-.3,2.7-5.4,3.1h-.2v1.7h.2c4.4,0,5-.1,9.3-.1s5.3.2,9.4.3h0s.1,0,.1,0c0,0,0,0,.1,0h.1c3.5,0,6.4-.2,10-.2s6.7,0,10.5.1h.2s0-1.2,0-1.2v-.2h-.2c-6.7-.9-7.4-3.6-7.4-10.9v-16.1h7.7ZM89.9,291.6h-18c2.6-5.8,5.8-13.1,9.8-22.4,3.4,9.5,6.1,16.7,8.2,22.4Z"/>
    <path d="M335.6,260.3h-32.9c-18.4,0-20.2-.1-23.2-.7h-.2s0,.2,0,.2c.3,2,.4,4,.4,6.2s-.1,3.9-.2,5.7v.2s1,0,1,0h.1s0-.1,0-.1c1.9-4.6,3.8-8.2,13-8.2,4.6,0,6,0,6.1,8.2v33.4c0,7.2-.7,10-7.2,10.9h-.2v1.4h.2c3.6,0,6.5-.2,10.2-.2s6.7,0,10.5.1h.2s0-1.2,0-1.2v-.2h-.2c-6.7-.9-7.4-3.6-7.4-10.9v-33.4c0-7.9,1.2-8.1,6.1-8.2h14.7c4.6,0,6,0,6.1,8.2v33.4c0,7.2-.7,10-7.2,10.9h-.2v1.4h.2c3.6,0,6.5-.2,10.2-.2s6.7,0,10.5.1h.2s0-1.2,0-1.2v-.2h-.2c-6.7-.9-7.4-3.6-7.4-10.9v-32.7c0-7.9,1.2-8.1,6.1-8.2,9.3,0,11.1,2.9,13,7.5h0c0,.1.9,0,.9,0h.2s0-.2,0-.2c0-1.8-.2-3.8-.2-5.7s.1-4.2.4-6.2v-.2s-.2,0-.2,0c-3.4.7-4.7.7-23.4.7Z"/>
    <path d="M403.7,305.8v-.2c-.1,0-.3.2-.3.2-3.4,4.6-5.6,7.9-17.3,7.9-11.3,0-11.2-.4-11.3-8.6v-16h7.5c7.2,0,10.4.2,10.9,4.3v.2h1.4v-.2c0-3.6,0-4.7,0-6.2s0-2.9,0-6.6v-.2s-1.2,0-1.2,0h-.2v.2c-.4,4.4-3.6,4.5-10.9,4.5h-7.5v-13.2c0-7.9,1.2-8.1,11.3-8.2,9.2,0,10.7,3.6,12.6,8.2h0c0,.1.9,0,.9,0h.2s0-.2,0-.2c0-1.8-.2-3.8-.2-5.7s.1-4.2.4-6.2v-.2s-.2,0-.2,0c-3.4.7-9.4.7-21.2.7s-11.5,0-17,0h-.2s0,1.4,0,1.4v.2h.2c6.6.9,7.2,3.6,7.2,10.8v32.8c0,7.2-.7,10-7.2,10.9h-.2v1.4h.2c6-.2,12.2-.2,18.3-.2,9.7,0,15.9,0,20,.8h.2s0-.1,0-.1c.7-3.5,2.3-7.6,4.2-11.2h0c0-.1-.7-.9-.7-.9Z"/>
  </g>
  <g>
    <path d="M99.9,367.7l-.6.2c-1.5,2.1-2.6,3.5-7.8,3.5s-4.5,0-4.5-3.7v-6.9h2.8c3.6,0,4.6.2,4.8,1.7l.4.4h.6l.4-.4c0-1,0-1.6,0-2.1,0-.3,0-.5,0-.8s0-.5,0-.9c0-.6,0-1.3,0-2.4l-.4-.4h-.6l-.4.4c-.2,1.7-1.3,1.8-4.8,1.8h-2.8v-5.6c0-3.4,0-3.5,4.5-3.5s4.7,1.4,5.6,3.4l.4.2h.6s.4-.5.4-.5c0-.3,0-.5,0-.8,0-.6,0-1.2,0-1.8,0-.9,0-1.8.2-2.8l-.5-.5c-1.6.3-4.2.3-9.8.3s-5.4,0-8,0l-.4.4v.8l.4.4c2.7.3,3.1,1.3,3.1,4.7v14.9c0,3.4-.4,4.4-3.1,4.8l-.3.4v.7l.4.4c2.8,0,5.7-.1,8.5-.1,4.5,0,7.4,0,9.3.4l.5-.3c.3-1.6,1.1-3.6,2-5.4v-.5c-.1,0-.6-.3-.6-.3Z"/>
    <path d="M129.1,346.5c-.7,0-1.4,0-2.2,0s-1.6,0-2.3,0c-.7,0-1.4,0-2.3,0l-.4.4v.8l.3.4h.1c2,.4,3.1.6,3.1,3.9v14.6c-5-5.3-15.8-17.3-18.9-21.3l-.3-.2h-.7l-.4.4v23c0,3.4-1,3.5-3.2,3.9l-.3.4v.8l.4.4c.9,0,1.6,0,2.3,0,.7,0,1.4,0,2.2,0s1.6,0,2.3,0c.7,0,1.4,0,2.3,0l.4-.4v-.8l-.4-.4c-2-.4-3.1-.6-3.1-3.8v-15.5c1.6,1.7,3.1,3.4,4.7,5.1,4.7,5.1,9.5,10.3,14.3,16.2h.3c0,.1.6.1.6.1l.4-.4v-22c0-3.3,1-3.5,3.1-3.8h.1s.3-.4.3-.4v-.8l-.4-.4c-.9,0-1.6,0-2.3,0Z"/>
    <path d="M155.2,364c-1.4,0-2.6,0-3.9,0l-.4.4v.9l.4.4c2,.2,2.1.2,2.1,2.6v3.1c-1.5.7-3,.9-3.4.9-9.5,0-12.9-6.4-12.9-11.9s3.1-12.1,11.7-12.1,6,1.3,6.3,3.3l.4.3h.8l.4-.3.6-4.3-.3-.5c-1-.2-4.6-1-8.4-1-10.7,0-15.5,7.5-15.5,14.4s4.9,14.4,15.6,14.4,7.2-1,8.5-1.9v-.6c-.2-.3-.3-.7-.3-1.1v-2.8c0-2.4.2-2.4,1.8-2.6l.4-.4v-.9l-.4-.4c-1.1,0-2.3,0-3.5,0Z"/>
    <path d="M168.2,346.5c-1.6,0-3.3,0-4.9,0-.8,0-1.7,0-2.5,0l-.4.4v.8l.4.4c2.7.3,3.1,1.3,3.1,4.7v14.8c0,3.4-.4,4.4-3.1,4.7l-.4.4v.7l.4.4h.7c1.4,0,2.7,0,4.2,0s3.2,0,4.9,0l.4-.4v-.7l-.4-.4c-2.8-.3-3.2-1.3-3.2-4.7v-14.8c0-3.4.4-4.4,3.2-4.7l.4-.4v-.8l-.4-.4c-.8,0-1.6,0-2.4,0Z"/>
    <path d="M200.9,346.5c-.7,0-1.4,0-2.2,0s-1.6,0-2.3,0c-.7,0-1.4,0-2.3,0l-.4.4v.8l.3.4h.1c2,.4,3.1.6,3.1,3.9v14.6c-5-5.3-15.8-17.3-18.9-21.3l-.3-.2h-.7l-.4.4v23c0,3.4-1,3.5-3.2,3.9l-.3.4v.8l.4.4c.9,0,1.6,0,2.3,0,.7,0,1.4,0,2.2,0s1.6,0,2.3,0c.7,0,1.4,0,2.3,0l.4-.4v-.8l-.4-.4c-2-.4-3.1-.6-3.1-3.8v-15.5c1.6,1.7,3.2,3.4,4.7,5.1,4.7,5.1,9.5,10.3,14.3,16.2h.3c0,.1.6.1.6.1l.4-.4v-22c0-3.3,1-3.5,3.1-3.8h.1s.3-.4.3-.4v-.8l-.4-.4c-.9,0-1.6,0-2.3,0Z"/>
    <path d="M225.5,367.7l-.6.2c-1.5,2.1-2.6,3.5-7.8,3.5s-4.5,0-4.5-3.7v-6.9h2.8c3.6,0,4.6.2,4.8,1.7l.4.4h.6l.4-.4c0-1,0-1.6,0-2.1,0-.3,0-.5,0-.8s0-.5,0-.9c0-.6,0-1.3,0-2.4l-.4-.4h-.6l-.4.4c-.2,1.7-1.3,1.8-4.8,1.8h-2.8v-5.6c0-3.4,0-3.5,4.5-3.5s4.7,1.4,5.6,3.4l.4.2h.6s.4-.5.4-.5v-.8c0-.6-.1-1.2-.1-1.9,0-.9,0-1.8.2-2.8l-.5-.5c-1.6.3-4.2.3-9.8.3s-5.4,0-8,0l-.4.4v.8l.4.4c2.7.3,3.1,1.3,3.1,4.7v14.9c0,3.4-.4,4.4-3.1,4.8l-.3.4v.7l.4.4c2.8,0,5.7-.1,8.5-.1,4.5,0,7.4,0,9.3.4l.5-.3c.3-1.6,1.1-3.6,2-5.4v-.5c-.1,0-.6-.3-.6-.3Z"/>
    <path d="M247.5,367.7l-.6.2c-1.5,2.1-2.6,3.5-7.8,3.5s-4.5,0-4.5-3.7v-6.9h2.8c3.6,0,4.6.2,4.8,1.7l.4.4h.6l.4-.4c0-1,0-1.6,0-2.1,0-.3,0-.5,0-.8s0-.5,0-.9c0-.6,0-1.3,0-2.4l-.4-.4h-.6l-.4.4c-.2,1.7-1.3,1.8-4.8,1.8h-2.8v-5.6c0-3.4,0-3.5,4.5-3.5s4.7,1.4,5.6,3.4l.4.2h.6s.4-.5.4-.5c0-.3,0-.6,0-.8,0-.6,0-1.2,0-1.8,0-.9,0-1.8.2-2.8l-.5-.5c-1.6.3-4.2.3-9.8.3s-5.4,0-8,0l-.4.4v.8l.4.4c2.7.3,3.1,1.3,3.1,4.7v14.9c0,3.4-.4,4.4-3.1,4.8l-.3.4v.7l.4.4c2.8,0,5.7-.1,8.5-.1,4.5,0,7.4,0,9.3.4l.5-.3c.3-1.6,1.1-3.6,2-5.4v-.5c-.1,0-.6-.3-.6-.3Z"/>
    <path d="M268.5,367.9l-5.3-5.7c4.6-1,7.1-5,7.1-8.6s-3.8-7.3-10.5-7.3-1.9,0-2.8.2c-1.7.1-3.2.1-4.7.1-.8,0-1.6,0-2.5,0l-.4.4v.8l.4.4c2.7.3,3.1,1.3,3.1,4.7v14.8c0,3.5-.4,4.4-3.1,4.8l-.4.4v.7l.4.4h.4c1.5,0,2.9,0,4.5,0s3,0,4.5,0h.4s.4-.4.4-.4v-.7l-.4-.4c-2.8-.4-3.2-1.3-3.2-4.8v-5.2h2.3c2.9,2.8,7.2,7.6,9.3,9.9.6.7,1.1,1.2,1.3,1.4h.3c.8,0,1.5,0,2,0h0c.7,0,1.5,0,2.9.1l.4-.3.2-.7-.3-.5c-2.6-.7-3.7-1.6-6.5-4.6ZM266.4,354.2c0,3.8-2.4,5.7-7.2,5.7h-2.6v-7.3c0-3.6.4-3.9,3-3.9,4.5,0,6.8,1.8,6.8,5.4Z"/>
    <path d="M285.2,346.5c-1.5,0-3.3,0-4.9,0-.8,0-1.6,0-2.5,0l-.4.4v.8l.4.4c2.7.3,3.1,1.3,3.1,4.7v14.8c0,3.4-.4,4.4-3.1,4.7l-.4.4v.7l.4.4h.7c1.4,0,2.7,0,4.2,0s3.2,0,4.9,0l.4-.4v-.7l-.4-.4c-2.8-.3-3.2-1.3-3.2-4.7v-14.8c0-3.4.4-4.4,3.2-4.7l.4-.4v-.8l-.4-.4c-.8,0-1.6,0-2.4,0Z"/>
    <path d="M317.9,346.5c-.7,0-1.4,0-2.2,0s-1.6,0-2.3,0c-.7,0-1.4,0-2.3,0l-.4.4v.8l.3.4h.1c2,.4,3.1.6,3.1,3.9v14.6c-5-5.3-15.8-17.3-18.9-21.3l-.3-.2h-.7l-.4.4v23c0,3.4-1,3.5-3.2,3.9l-.3.4v.8l.4.4c.9,0,1.6,0,2.3,0,.7,0,1.4,0,2.2,0s1.6,0,2.3,0c.7,0,1.4,0,2.3,0l.4-.4v-.8l-.4-.4c-2-.4-3.1-.6-3.1-3.8v-15.5c1.6,1.7,3.1,3.4,4.7,5.1,4.7,5.1,9.5,10.3,14.3,16.2h.3c0,.1.6.1.6.1l.4-.4v-22c0-3.3,1-3.5,3.1-3.8h.1s.3-.4.3-.4v-.8l-.4-.4c-.9,0-1.6,0-2.3,0Z"/>
    <path d="M347.5,363.9c-1.1,0-2.3,0-3.5,0h0c-1.4,0-2.6,0-3.9,0l-.4.4v.9l.4.4c2,.2,2.1.2,2.1,2.6v3.1c-1.5.7-3,.9-3.4.9-9.5,0-12.9-6.4-12.9-11.9s3.1-12.1,11.7-12.1,6,1.3,6.3,3.3l.4.3h.8l.4-.3.6-4.3-.3-.5c-1-.2-4.6-1-8.4-1-10.7,0-15.5,7.5-15.5,14.4s4.9,14.4,15.6,14.4,7.2-1,8.5-1.9v-.6c-.2-.2-.3-.6-.3-1.1v-2.8c0-2.4.2-2.4,1.8-2.6l.4-.4v-.9l-.4-.4Z"/>
  </g>
</svg>